<svg width="300" height="300" viewBox="0 0 300 300" fill="none" xmlns="http://www.w3.org/2000/svg">
<path d="M88.6221 94.1459H199.032C201.269 94.146 203.481 94.7675 205.526 95.9705C207.571 97.1734 209.403 98.9311 210.904 101.13C212.406 103.329 213.542 105.921 214.242 108.738C214.941 111.555 215.187 114.535 214.965 117.486L210.161 181.171C209.766 186.409 207.917 191.266 204.972 194.798C202.028 198.33 198.199 200.287 194.228 200.287H117.766C114.063 200.289 110.473 198.589 107.609 195.477C104.745 192.365 102.783 188.033 102.057 183.219L88.6221 94.1459Z" stroke="#111111" stroke-width="10" stroke-linejoin="round"/>
<path d="M88.6211 94.1456L82.1358 59.7241C81.7021 57.4288 80.7023 55.3915 79.2952 53.9357C77.8881 52.48 76.1544 51.6893 74.3695 51.6892H64.6016" stroke="#111111" stroke-width="10" stroke-linecap="round" stroke-linejoin="round"/>
<path d="M112.643 242.743H128.656" stroke="#111111" stroke-width="10" stroke-linecap="round" stroke-linejoin="round"/>
<path d="M176.692 242.743H192.706" stroke="#111111" stroke-width="10" stroke-linecap="round" stroke-linejoin="round"/>
</svg>
