<svg width="250" height="250" viewBox="0 0 250 250" fill="none" xmlns="http://www.w3.org/2000/svg">
<path d="M100 200H150M100 200H83.3333C74.4928 200 66.0143 196.351 59.7631 189.855C53.5119 183.359 50 174.549 50 165.362V110.877C49.9999 104.921 51.4776 99.0657 54.2906 93.8764C57.1035 88.6872 61.1566 84.3394 66.0583 81.2527L107.725 55.0146C112.934 51.7343 118.909 50 125 50C131.091 50 137.066 51.7343 142.275 55.0146L183.942 81.2527C188.842 84.3386 192.895 88.6851 195.707 93.8727C198.52 99.0602 199.999 104.914 200 110.868V165.362C200 174.549 196.488 183.359 190.237 189.855C183.986 196.351 175.507 200 166.667 200H150H100ZM100 200V165.362C100 158.472 102.634 151.865 107.322 146.993C112.011 142.121 118.37 139.384 125 139.384V139.384C131.63 139.384 137.989 142.121 142.678 146.993C147.366 151.865 150 158.472 150 165.362V200H100Z" stroke="#999999" stroke-width="15" stroke-linecap="round" stroke-linejoin="round"/>
</svg>
