<svg width="250" height="250" viewBox="0 0 250 250" fill="none" xmlns="http://www.w3.org/2000/svg">
<path d="M86.9492 111.861L90.6913 175.218L95.0022 202.447L115.883 184.443L159.669 138.488" stroke="#999999" stroke-width="16" stroke-linecap="round" stroke-linejoin="round"/>
<path d="M89.1606 153.325L131.222 168.634" stroke="#999999" stroke-width="16" stroke-linecap="round"/>
<path d="M150.111 51.5802C124.905 42.3605 108.214 61.8904 108.214 61.8904C108.214 61.8904 80.2452 60.2051 73.3384 79.041C66.4317 97.877 84.6744 113.094 84.6744 113.094C84.6744 113.094 102.141 110.938 125.247 119.389C148.353 127.841 160.294 140.753 160.294 140.753C160.294 140.753 184.062 140.902 190.969 122.066C197.875 103.23 175.432 86.4761 175.432 86.4761C175.432 86.4761 175.317 60.7998 150.111 51.5802Z" stroke="#999999" stroke-width="16" stroke-linecap="round" stroke-linejoin="round"/>
</svg>
