<svg width="250" height="250" viewBox="0 0 250 250" fill="none" xmlns="http://www.w3.org/2000/svg">
<path fill-rule="evenodd" clip-rule="evenodd" d="M155.909 101.818C155.909 110.016 152.652 117.877 146.855 123.674C141.059 129.471 133.197 132.727 124.999 132.727C116.802 132.727 108.94 129.471 103.143 123.674C97.3468 117.877 94.0903 110.016 94.0903 101.818C94.0903 93.6204 97.3468 85.7586 103.143 79.962C108.94 74.1654 116.802 70.9089 124.999 70.9089C133.197 70.9089 141.059 74.1654 146.855 79.962C152.652 85.7586 155.909 93.6204 155.909 101.818V101.818ZM140.454 101.818C140.454 105.917 138.826 109.848 135.927 112.746C133.029 115.644 129.098 117.273 124.999 117.273C120.901 117.273 116.97 115.644 114.071 112.746C111.173 109.848 109.545 105.917 109.545 101.818C109.545 97.7192 111.173 93.7883 114.071 90.89C116.97 87.9917 120.901 86.3635 124.999 86.3635C129.098 86.3635 133.029 87.9917 135.927 90.89C138.826 93.7883 140.454 97.7192 140.454 101.818V101.818Z" fill="#999999"/>
<path fill-rule="evenodd" clip-rule="evenodd" d="M125 40C78.0568 40 40 78.0568 40 125C40 171.943 78.0568 210 125 210C171.943 210 210 171.943 210 125C210 78.0568 171.943 40 125 40ZM55.4545 125C55.4545 141.15 60.9641 156.017 70.1982 167.825C76.6831 159.308 85.0492 152.407 94.6429 147.659C104.237 142.911 114.798 140.445 125.502 140.455C136.068 140.445 146.497 142.846 155.994 147.477C165.49 152.108 173.805 158.845 180.304 167.175C186.999 158.394 191.507 148.145 193.455 137.275C195.403 126.406 194.734 115.229 191.505 104.669C188.275 94.1097 182.578 84.4708 174.883 76.5503C167.189 68.6298 157.719 62.6553 147.257 59.1212C136.796 55.5871 125.643 54.5951 114.722 56.2271C103.8 57.8591 93.4247 62.0683 84.4532 68.5063C75.4817 74.9444 68.1722 83.4263 63.1295 93.2501C58.0868 103.074 55.4559 113.957 55.4545 125V125ZM125 194.545C109.035 194.569 93.5521 189.077 81.1709 178.998C86.1545 171.864 92.7876 166.039 100.506 162.019C108.224 157.999 116.8 155.903 125.502 155.909C134.096 155.902 142.568 157.946 150.214 161.87C157.859 165.794 164.458 171.486 169.463 178.473C156.985 188.879 141.247 194.568 125 194.545V194.545Z" fill="#999999"/>
</svg>
