<svg width="250" height="250" viewBox="0 0 250 250" fill="none" xmlns="http://www.w3.org/2000/svg">
<path d="M182.184 53.1768C180.758 50.6886 178.748 48.6291 176.346 47.1968C173.944 45.7646 171.232 45.008 168.472 45H81.528C75.944 45 70.688 48.1326 67.816 53.1768L46.144 91.1895C45.394 92.4982 44.9984 93.9979 45 95.5263C45.032 103.654 47.876 111.492 53 117.573V188.158C53 197.446 60.176 205 69 205H181C189.824 205 197 197.446 197 188.158V117.573C202.124 111.492 204.968 103.654 205 95.5263C205.002 93.9979 204.606 92.4982 203.856 91.1895L182.184 53.1768ZM188.872 97.64C188.378 101.706 186.495 105.443 183.574 108.154C180.653 110.864 176.894 112.363 173 112.368C164.176 112.368 157 104.815 157 95.5263C157 94.9537 156.8 94.4484 156.688 93.9095L156.848 93.8758L150.76 61.8421H168.472L188.872 97.64V97.64ZM115.552 61.8421H134.44L140.944 96.0737C140.664 105.101 133.64 112.368 125 112.368C116.36 112.368 109.336 105.101 109.056 96.0737L115.552 61.8421ZM81.528 61.8421H99.24L93.16 93.8758L93.32 93.9095C93.2 94.4484 93 94.9537 93 95.5263C93 104.815 85.824 112.368 77 112.368C73.106 112.363 69.3473 110.864 66.4262 108.154C63.5052 105.443 61.6218 101.706 61.128 97.64L81.528 61.8421ZM109 188.158V162.895H141V188.158H109ZM157 188.158V162.895C157 153.606 149.824 146.053 141 146.053H109C100.176 146.053 93 153.606 93 162.895V188.158H69V128.015C71.568 128.714 74.216 129.211 77 129.211C81.5425 129.213 86.0332 128.195 90.172 126.224C94.3108 124.254 98.0024 121.376 101 117.783C106.864 124.789 115.456 129.211 125 129.211C134.544 129.211 143.136 124.789 149 117.783C151.998 121.376 155.689 124.254 159.828 126.224C163.967 128.195 168.457 129.213 173 129.211C175.784 129.211 178.432 128.714 181 128.015V188.158H157Z" fill="#999999"/>
</svg>
